<mxfile host="app.diagrams.net" modified="2022-06-22T10:26:36.040Z" agent="5.0 (Macintosh; Intel Mac OS X 10_15_7) AppleWebKit/537.36 (KHTML, like Gecko) Chrome/91.0.4472.114 Safari/537.36" etag="fPt98HgVxc0rR9soGOVX" version="20.0.2" type="github">
  <diagram id="hSpV1MgLl40jB2ClibWX" name="Page-1">
    <mxGraphModel dx="786" dy="349" grid="1" gridSize="10" guides="1" tooltips="1" connect="1" arrows="1" fold="1" page="1" pageScale="1" pageWidth="850" pageHeight="1100" math="0" shadow="0">
      <root>
        <mxCell id="0" />
        <mxCell id="1" parent="0" />
        <mxCell id="RC4oqEELy3gwianFtOuK-1" value="User" style="ellipse;shape=cloud;whiteSpace=wrap;html=1;fillColor=#e1d5e7;strokeColor=#9673a6;" parent="1" vertex="1">
          <mxGeometry x="332" y="20" width="110" height="60" as="geometry" />
        </mxCell>
        <mxCell id="RC4oqEELy3gwianFtOuK-3" value="App Server1" style="rounded=1;whiteSpace=wrap;html=1;fillColor=#fff2cc;strokeColor=#d6b656;" parent="1" vertex="1">
          <mxGeometry x="194" y="240" width="90" height="40" as="geometry" />
        </mxCell>
        <mxCell id="RC4oqEELy3gwianFtOuK-5" value="" style="endArrow=classic;html=1;rounded=0;entryX=0.5;entryY=0;entryDx=0;entryDy=0;edgeStyle=orthogonalEdgeStyle;" parent="1" source="SCMvMcW7dWXdQyEaetod-3" target="RC4oqEELy3gwianFtOuK-3" edge="1">
          <mxGeometry width="50" height="50" relative="1" as="geometry">
            <mxPoint x="352.5" y="150" as="sourcePoint" />
            <mxPoint x="430" y="190" as="targetPoint" />
          </mxGeometry>
        </mxCell>
        <mxCell id="RC4oqEELy3gwianFtOuK-6" value="" style="endArrow=classic;html=1;rounded=0;exitX=0.55;exitY=0.95;exitDx=0;exitDy=0;exitPerimeter=0;entryX=0.5;entryY=0;entryDx=0;entryDy=0;entryPerimeter=0;" parent="1" source="RC4oqEELy3gwianFtOuK-1" target="SCMvMcW7dWXdQyEaetod-3" edge="1">
          <mxGeometry width="50" height="50" relative="1" as="geometry">
            <mxPoint x="380" y="240" as="sourcePoint" />
            <mxPoint x="393.67291178766595" y="111.24902419984392" as="targetPoint" />
          </mxGeometry>
        </mxCell>
        <mxCell id="RC4oqEELy3gwianFtOuK-7" value="App Server2" style="rounded=1;whiteSpace=wrap;html=1;fillColor=#fff2cc;strokeColor=#d6b656;" parent="1" vertex="1">
          <mxGeometry x="348.99" y="243" width="90" height="40" as="geometry" />
        </mxCell>
        <mxCell id="RC4oqEELy3gwianFtOuK-8" value="" style="endArrow=classic;html=1;rounded=0;exitX=0.5;exitY=1;exitDx=0;exitDy=0;exitPerimeter=0;" parent="1" source="SCMvMcW7dWXdQyEaetod-3" target="RC4oqEELy3gwianFtOuK-7" edge="1">
          <mxGeometry width="50" height="50" relative="1" as="geometry">
            <mxPoint x="395" y="190" as="sourcePoint" />
            <mxPoint x="430" y="190" as="targetPoint" />
          </mxGeometry>
        </mxCell>
        <mxCell id="RC4oqEELy3gwianFtOuK-9" value="App Server3" style="rounded=1;whiteSpace=wrap;html=1;fillColor=#fff2cc;strokeColor=#d6b656;" parent="1" vertex="1">
          <mxGeometry x="521" y="240" width="90" height="40" as="geometry" />
        </mxCell>
        <mxCell id="RC4oqEELy3gwianFtOuK-10" value="" style="endArrow=classic;html=1;rounded=0;entryX=0.5;entryY=0;entryDx=0;entryDy=0;edgeStyle=orthogonalEdgeStyle;" parent="1" source="SCMvMcW7dWXdQyEaetod-3" target="RC4oqEELy3gwianFtOuK-9" edge="1">
          <mxGeometry width="50" height="50" relative="1" as="geometry">
            <mxPoint x="437.5" y="150" as="sourcePoint" />
            <mxPoint x="430" y="190" as="targetPoint" />
          </mxGeometry>
        </mxCell>
        <mxCell id="RC4oqEELy3gwianFtOuK-12" value="Airtel SMS service" style="ellipse;whiteSpace=wrap;html=1;fillColor=#e1d5e7;strokeColor=#9673a6;" parent="1" vertex="1">
          <mxGeometry x="155" y="960" width="80" height="50" as="geometry" />
        </mxCell>
        <mxCell id="RC4oqEELy3gwianFtOuK-13" value="Twillo Airtel Service" style="ellipse;whiteSpace=wrap;html=1;fillColor=#e1d5e7;strokeColor=#9673a6;" parent="1" vertex="1">
          <mxGeometry x="348" y="960" width="80" height="50" as="geometry" />
        </mxCell>
        <mxCell id="RC4oqEELy3gwianFtOuK-14" value="" style="endArrow=classic;html=1;rounded=0;exitX=0.5;exitY=1;exitDx=0;exitDy=0;entryX=0.297;entryY=0.011;entryDx=0;entryDy=0;entryPerimeter=0;" parent="1" source="RC4oqEELy3gwianFtOuK-3" target="RC4oqEELy3gwianFtOuK-19" edge="1">
          <mxGeometry width="50" height="50" relative="1" as="geometry">
            <mxPoint x="380" y="450" as="sourcePoint" />
            <mxPoint x="364" y="365" as="targetPoint" />
          </mxGeometry>
        </mxCell>
        <mxCell id="RC4oqEELy3gwianFtOuK-15" value="" style="endArrow=classic;html=1;rounded=0;exitX=0.5;exitY=1;exitDx=0;exitDy=0;" parent="1" source="RC4oqEELy3gwianFtOuK-7" target="RC4oqEELy3gwianFtOuK-19" edge="1">
          <mxGeometry width="50" height="50" relative="1" as="geometry">
            <mxPoint x="249" y="280" as="sourcePoint" />
            <mxPoint x="394" y="400" as="targetPoint" />
          </mxGeometry>
        </mxCell>
        <mxCell id="RC4oqEELy3gwianFtOuK-16" value="" style="endArrow=classic;html=1;rounded=0;exitX=0.5;exitY=1;exitDx=0;exitDy=0;entryX=0.75;entryY=0;entryDx=0;entryDy=0;" parent="1" source="RC4oqEELy3gwianFtOuK-9" target="RC4oqEELy3gwianFtOuK-19" edge="1">
          <mxGeometry width="50" height="50" relative="1" as="geometry">
            <mxPoint x="404" y="280" as="sourcePoint" />
            <mxPoint x="424" y="365" as="targetPoint" />
          </mxGeometry>
        </mxCell>
        <mxCell id="RC4oqEELy3gwianFtOuK-19" value="" style="rounded=1;whiteSpace=wrap;html=1;dashed=1;" parent="1" vertex="1">
          <mxGeometry x="309" y="405" width="165" height="90" as="geometry" />
        </mxCell>
        <mxCell id="RC4oqEELy3gwianFtOuK-25" value="" style="endArrow=classic;html=1;rounded=0;exitX=0.5;exitY=0;exitDx=0;exitDy=0;" parent="1" source="RC4oqEELy3gwianFtOuK-27" target="RC4oqEELy3gwianFtOuK-19" edge="1">
          <mxGeometry width="50" height="50" relative="1" as="geometry">
            <mxPoint x="300" y="570" as="sourcePoint" />
            <mxPoint x="430" y="560" as="targetPoint" />
          </mxGeometry>
        </mxCell>
        <mxCell id="RC4oqEELy3gwianFtOuK-27" value="Process Message Consumer" style="rounded=1;whiteSpace=wrap;html=1;fillColor=#fff2cc;strokeColor=#d6b656;" parent="1" vertex="1">
          <mxGeometry x="324.37" y="570" width="135.25" height="50" as="geometry" />
        </mxCell>
        <mxCell id="RC4oqEELy3gwianFtOuK-29" value="" style="endArrow=classic;html=1;rounded=0;exitX=0.028;exitY=0.422;exitDx=0;exitDy=0;edgeStyle=orthogonalEdgeStyle;exitPerimeter=0;entryX=0.65;entryY=0.16;entryDx=0;entryDy=0;entryPerimeter=0;" parent="1" source="RC4oqEELy3gwianFtOuK-33" target="SCMvMcW7dWXdQyEaetod-10" edge="1">
          <mxGeometry width="50" height="50" relative="1" as="geometry">
            <mxPoint x="380" y="730" as="sourcePoint" />
            <mxPoint x="195" y="790" as="targetPoint" />
          </mxGeometry>
        </mxCell>
        <mxCell id="RC4oqEELy3gwianFtOuK-33" value="Decide SMS Provider" style="rhombus;whiteSpace=wrap;html=1;fillColor=#f8cecc;strokeColor=#b85450;" parent="1" vertex="1">
          <mxGeometry x="343.24" y="660" width="97.5" height="90" as="geometry" />
        </mxCell>
        <mxCell id="RC4oqEELy3gwianFtOuK-34" value="" style="endArrow=classic;html=1;rounded=0;exitX=0.5;exitY=1;exitDx=0;exitDy=0;entryX=0.5;entryY=0;entryDx=0;entryDy=0;" parent="1" source="RC4oqEELy3gwianFtOuK-27" target="RC4oqEELy3gwianFtOuK-33" edge="1">
          <mxGeometry width="50" height="50" relative="1" as="geometry">
            <mxPoint x="380" y="800" as="sourcePoint" />
            <mxPoint x="430" y="750" as="targetPoint" />
          </mxGeometry>
        </mxCell>
        <mxCell id="RC4oqEELy3gwianFtOuK-35" value="" style="endArrow=classic;html=1;rounded=0;exitX=0.5;exitY=1;exitDx=0;exitDy=0;" parent="1" source="RC4oqEELy3gwianFtOuK-33" target="SCMvMcW7dWXdQyEaetod-9" edge="1">
          <mxGeometry width="50" height="50" relative="1" as="geometry">
            <mxPoint x="380" y="750" as="sourcePoint" />
            <mxPoint x="389.53461538461534" y="790" as="targetPoint" />
          </mxGeometry>
        </mxCell>
        <mxCell id="RC4oqEELy3gwianFtOuK-37" value="" style="endArrow=classic;html=1;rounded=0;exitX=1;exitY=0.5;exitDx=0;exitDy=0;edgeStyle=orthogonalEdgeStyle;" parent="1" source="RC4oqEELy3gwianFtOuK-33" target="SCMvMcW7dWXdQyEaetod-8" edge="1">
          <mxGeometry width="50" height="50" relative="1" as="geometry">
            <mxPoint x="380" y="870" as="sourcePoint" />
            <mxPoint x="555" y="790" as="targetPoint" />
          </mxGeometry>
        </mxCell>
        <mxCell id="RC4oqEELy3gwianFtOuK-38" value="" style="endArrow=classic;html=1;rounded=0;exitX=0.5;exitY=0;exitDx=0;exitDy=0;entryX=0.5;entryY=1;entryDx=0;entryDy=0;entryPerimeter=0;" parent="1" source="RC4oqEELy3gwianFtOuK-12" edge="1">
          <mxGeometry width="50" height="50" relative="1" as="geometry">
            <mxPoint x="380" y="910" as="sourcePoint" />
            <mxPoint x="195" y="840" as="targetPoint" />
          </mxGeometry>
        </mxCell>
        <mxCell id="RC4oqEELy3gwianFtOuK-40" value="" style="endArrow=classic;html=1;rounded=0;exitX=0.5;exitY=0;exitDx=0;exitDy=0;" parent="1" source="RC4oqEELy3gwianFtOuK-13" target="SCMvMcW7dWXdQyEaetod-9" edge="1">
          <mxGeometry width="50" height="50" relative="1" as="geometry">
            <mxPoint x="380" y="910" as="sourcePoint" />
            <mxPoint x="388" y="840" as="targetPoint" />
          </mxGeometry>
        </mxCell>
        <mxCell id="RC4oqEELy3gwianFtOuK-41" value="Amazon SMS Service" style="ellipse;whiteSpace=wrap;html=1;fillColor=#e1d5e7;strokeColor=#9673a6;" parent="1" vertex="1">
          <mxGeometry x="510" y="960" width="80" height="50" as="geometry" />
        </mxCell>
        <mxCell id="RC4oqEELy3gwianFtOuK-42" value="" style="endArrow=classic;html=1;rounded=0;" parent="1" source="RC4oqEELy3gwianFtOuK-41" target="SCMvMcW7dWXdQyEaetod-8" edge="1">
          <mxGeometry width="50" height="50" relative="1" as="geometry">
            <mxPoint x="550" y="950" as="sourcePoint" />
            <mxPoint x="555" y="840" as="targetPoint" />
          </mxGeometry>
        </mxCell>
        <mxCell id="hsocOPPATjzEpRB6f7Aq-1" value="Listening" style="text;html=1;strokeColor=none;fillColor=none;align=center;verticalAlign=middle;whiteSpace=wrap;rounded=0;" parent="1" vertex="1">
          <mxGeometry x="194" y="873" width="60" height="30" as="geometry" />
        </mxCell>
        <mxCell id="hsocOPPATjzEpRB6f7Aq-2" value="Listening" style="text;html=1;strokeColor=none;fillColor=none;align=center;verticalAlign=middle;whiteSpace=wrap;rounded=0;" parent="1" vertex="1">
          <mxGeometry x="390" y="495" width="60" height="30" as="geometry" />
        </mxCell>
        <mxCell id="SCMvMcW7dWXdQyEaetod-3" value="Elastic Load Balancing &lt;br&gt;( with Auto-Scaling )" style="outlineConnect=0;dashed=0;verticalLabelPosition=bottom;verticalAlign=top;align=center;html=1;shape=mxgraph.aws3.elastic_load_balancing;fillColor=#F58534;gradientColor=none;" vertex="1" parent="1">
          <mxGeometry x="355.87" y="120" width="76.25" height="80" as="geometry" />
        </mxCell>
        <mxCell id="SCMvMcW7dWXdQyEaetod-4" value="Amazon SQS - Notifications" style="outlineConnect=0;dashed=0;verticalLabelPosition=bottom;verticalAlign=top;align=center;html=1;shape=mxgraph.aws3.sqs;fillColor=#D9A741;gradientColor=none;" vertex="1" parent="1">
          <mxGeometry x="369.38" y="419" width="44.25" height="50" as="geometry" />
        </mxCell>
        <mxCell id="SCMvMcW7dWXdQyEaetod-6" value="Auto-Scaling ( based on throttling )" style="text;html=1;strokeColor=none;fillColor=none;align=center;verticalAlign=middle;whiteSpace=wrap;rounded=0;" vertex="1" parent="1">
          <mxGeometry x="464" y="389" width="116" height="30" as="geometry" />
        </mxCell>
        <mxCell id="SCMvMcW7dWXdQyEaetod-7" value="&lt;div style=&quot;text-align: center;&quot;&gt;&lt;span style=&quot;background-color: initial;&quot;&gt;&lt;font color=&quot;#333333&quot;&gt;Based on SMS Service Queues Size, this decision would be done&lt;/font&gt;&lt;/span&gt;&lt;/div&gt;" style="text;whiteSpace=wrap;html=1;" vertex="1" parent="1">
          <mxGeometry x="428" y="660" width="192" height="40" as="geometry" />
        </mxCell>
        <mxCell id="SCMvMcW7dWXdQyEaetod-8" value="Amazon SQS&amp;nbsp;" style="outlineConnect=0;dashed=0;verticalLabelPosition=bottom;verticalAlign=top;align=center;html=1;shape=mxgraph.aws3.sqs;fillColor=#D9A741;gradientColor=none;" vertex="1" parent="1">
          <mxGeometry x="530" y="790" width="40" height="50" as="geometry" />
        </mxCell>
        <mxCell id="SCMvMcW7dWXdQyEaetod-9" value="Amazon SQS&amp;nbsp;" style="outlineConnect=0;dashed=0;verticalLabelPosition=bottom;verticalAlign=top;align=center;html=1;shape=mxgraph.aws3.sqs;fillColor=#D9A741;gradientColor=none;" vertex="1" parent="1">
          <mxGeometry x="369" y="790" width="40" height="50" as="geometry" />
        </mxCell>
        <mxCell id="SCMvMcW7dWXdQyEaetod-10" value="Amazon SQS&amp;nbsp;" style="outlineConnect=0;dashed=0;verticalLabelPosition=bottom;verticalAlign=top;align=center;html=1;shape=mxgraph.aws3.sqs;fillColor=#D9A741;gradientColor=none;" vertex="1" parent="1">
          <mxGeometry x="175" y="790" width="40" height="50" as="geometry" />
        </mxCell>
      </root>
    </mxGraphModel>
  </diagram>
</mxfile>
